<?xml version="1.0" standalone="no"?>
<!DOCTYPE svg PUBLIC "-//W3C//DTD SVG 20010904//EN"
 "http://www.w3.org/TR/2001/REC-SVG-20010904/DTD/svg10.dtd">
<svg version="1.0" xmlns="http://www.w3.org/2000/svg"
 width="1500.000000pt" height="1500.000000pt" viewBox="0 0 1500.000000 1500.000000"
 preserveAspectRatio="xMidYMid meet">
<metadata>
Created by potrace 1.14, written by Peter Selinger 2001-2017
</metadata>
<g transform="translate(0.000000,1500.000000) scale(0.100000,-0.100000)"
fill="#000000" stroke="none">
<path d="M0 7500 l0 -7500 7500 0 7500 0 0 7500 0 7500 -7500 0 -7500 0 0
-7500z m6838 1288 l-3 -823 -25 0 -25 0 -3 793 -2 792 -2050 0 -2050 0 0
-2050 0 -2050 2050 0 2050 0 2 793 3 792 25 0 25 0 3 -822 2 -823 -2105 0
-2105 0 0 2110 0 2110 2105 0 2105 0 -2 -822z m-2168 -1023 c0 -25 5 -45 10
-45 6 0 10 -20 10 -45 0 -33 4 -45 15 -45 11 0 15 -12 15 -44 0 -29 5 -46 15
-49 11 -5 14 -24 12 -86 -2 -69 0 -81 16 -85 14 -3 17 -17 17 -90 l0 -86 -45
0 c-51 0 -48 -5 -49 100 l-1 75 -87 3 -88 3 0 -91 0 -90 -45 0 -45 0 0 90 c0
73 3 90 15 90 12 0 15 16 15 85 0 50 4 85 10 85 6 0 10 20 10 45 0 38 3 45 20
45 17 0 20 7 20 45 0 25 5 45 10 45 6 0 10 20 10 45 l0 45 70 0 70 0 0 -45z
m330 -220 l0 -265 110 0 c108 0 110 0 116 -24 15 -60 13 -61 -159 -64 l-157
-3 0 311 0 310 45 0 45 0 0 -265z m628 223 l-3 -43 -87 -3 -88 -3 0 -89 0 -90
90 0 90 0 0 -40 0 -40 -90 0 -90 0 0 -90 0 -89 88 -3 87 -3 3 -42 3 -43 -135
0 c-120 0 -135 2 -139 18 -4 15 -3 556 1 590 2 9 37 12 138 12 l135 0 -3 -42z
m222 -3 c0 -33 4 -45 15 -45 15 0 19 -16 16 -61 -1 -16 4 -29 14 -32 10 -4 15
-20 15 -47 0 -38 2 -40 30 -40 29 0 30 2 30 45 0 25 5 45 10 45 6 0 10 20 10
44 0 34 4 45 17 48 12 2 17 14 17 43 l1 40 48 3 47 3 0 -41 c0 -33 -4 -43 -20
-47 -15 -4 -18 -11 -14 -28 8 -34 -4 -65 -27 -65 -16 0 -19 -7 -19 -40 0 -29
-4 -40 -15 -40 -11 0 -15 -12 -15 -50 0 -38 4 -50 15 -50 11 0 15 -11 15 -40
0 -33 3 -40 19 -40 23 0 35 -31 27 -65 -4 -17 -1 -24 14 -28 16 -4 20 -14 20
-47 l0 -41 -47 3 -48 3 -1 40 c0 29 -5 41 -17 43 -13 3 -17 14 -17 48 0 24 -4
44 -10 44 -5 0 -10 20 -10 45 0 43 -1 45 -30 45 -28 0 -30 -2 -30 -40 0 -27
-5 -43 -15 -47 -10 -3 -15 -16 -14 -32 3 -45 -1 -61 -16 -61 -11 0 -15 -12
-15 -45 l0 -45 -45 0 -45 0 0 45 c0 33 4 45 14 45 10 0 16 14 18 43 2 33 7 43
23 45 18 2 20 9 17 38 -4 29 -1 36 17 41 18 4 21 13 21 53 0 40 -3 49 -21 53
-18 5 -21 12 -17 41 3 29 1 36 -17 38 -16 2 -21 12 -23 46 -2 28 -8 42 -18 42
-10 0 -14 12 -14 45 l0 45 45 0 45 0 0 -45z m1118 -2 c3 -35 7 -43 23 -43 17
0 19 -8 19 -85 0 -78 -2 -85 -20 -85 -17 0 -20 -7 -20 -50 0 -43 3 -50 20 -50
18 0 20 -7 20 -85 0 -77 -2 -85 -19 -85 -16 0 -20 -8 -23 -42 l-3 -43 -157 -3
-158 -3 0 311 0 311 158 -3 157 -3 3 -42z m1338 2 c0 -34 4 -41 23 -43 19 -3
22 -9 19 -45 -3 -42 -3 -42 -45 -45 l-43 -3 0 45 0 46 -64 0 -65 0 -3 -42 c-2
-36 -7 -44 -25 -46 -23 -3 -23 -6 -23 -132 0 -126 0 -129 23 -132 18 -2 23
-10 25 -45 l3 -43 65 0 64 0 0 46 0 45 43 -3 c42 -3 42 -3 45 -45 3 -36 0 -42
-19 -45 -19 -2 -23 -9 -23 -43 l-1 -40 -112 -3 -113 -3 0 46 c0 41 -2 45 -25
45 -23 0 -25 4 -25 45 0 38 -3 45 -20 45 -19 0 -20 7 -20 130 0 123 1 130 20
130 17 0 20 7 20 45 0 41 2 45 25 45 23 0 25 4 25 45 l0 46 113 -3 112 -3 1
-40z m404 0 c0 -41 2 -45 25 -45 23 0 25 -4 25 -45 0 -38 3 -45 19 -45 19 0
20 -8 20 -130 0 -122 -1 -130 -20 -130 -16 0 -19 -7 -19 -45 0 -41 -2 -45 -25
-45 -23 0 -25 -4 -25 -45 l0 -46 -92 3 -93 3 -1 40 c0 36 -3 40 -27 43 -25 3
-27 7 -27 48 0 32 -4 44 -15 44 -18 0 -18 -1 -21 125 -2 113 1 135 22 135 10
0 14 13 14 44 0 41 2 45 28 48 24 3 27 7 24 35 -2 18 -1 37 3 43 3 6 45 10 96
10 l89 0 0 -45z m290 0 c0 -33 4 -45 15 -45 11 0 15 -12 15 -45 0 -33 4 -45
15 -45 15 0 26 -31 22 -65 -1 -14 5 -21 21 -23 19 -3 22 -9 22 -48 0 -37 3
-44 20 -44 19 0 20 7 20 180 l0 180 45 0 45 0 0 -310 0 -310 -45 0 -45 0 0 44
c0 41 -2 45 -27 48 -25 3 -28 7 -31 46 -2 28 -8 42 -18 42 -10 0 -14 12 -14
45 0 38 -3 45 -20 45 -20 0 -32 27 -27 65 1 14 -4 20 -17 20 -19 0 -20 -9 -20
-175 l-1 -175 -47 -3 -48 -3 0 310 0 311 60 0 60 0 0 -45z m645 24 c4 -11 4
-31 1 -45 -6 -21 -3 -24 19 -24 22 0 25 -4 25 -39 0 -22 -4 -43 -10 -46 -5 -3
-10 -24 -10 -46 0 -38 -1 -39 -35 -39 l-35 0 0 -50 c0 -27 5 -50 10 -50 6 0
10 -18 10 -40 0 -29 4 -40 15 -40 17 0 30 -41 22 -69 -3 -13 1 -21 14 -24 15
-4 19 -14 19 -46 l0 -41 -44 0 c-49 0 -62 16 -50 64 5 22 3 26 -15 26 -18 0
-21 6 -21 45 0 33 -4 45 -15 45 -11 0 -15 12 -15 45 l0 45 -55 0 -55 0 0 -135
0 -135 -45 0 -45 0 0 310 0 310 154 0 c148 0 155 -1 161 -21z m380 2 c3 -11 3
-31 -1 -45 -5 -20 -2 -26 10 -26 12 0 16 -10 16 -45 0 -33 4 -45 15 -45 11 0
15 -12 15 -45 0 -25 5 -45 10 -45 6 0 10 -35 10 -85 0 -68 3 -85 15 -85 19 0
25 -29 22 -110 l-2 -65 -47 -3 -48 -3 0 90 0 91 -85 0 -85 0 0 -91 0 -90 -47
3 -48 3 -2 65 c-2 82 3 110 22 110 12 0 15 17 15 85 0 50 4 85 10 85 6 0 10
20 10 45 0 33 4 45 15 45 11 0 15 11 15 40 0 26 6 42 17 48 10 6 14 16 10 27
-4 9 -4 27 -1 41 6 22 11 24 69 24 54 0 65 -3 70 -19z m465 -26 c0 -41 2 -45
25 -45 23 0 25 -4 25 -45 0 -38 3 -45 20 -45 19 0 20 -7 20 -130 0 -123 -1
-130 -20 -130 -17 0 -20 -7 -20 -45 0 -41 -2 -45 -25 -45 -23 0 -25 -4 -25
-45 l0 -45 -135 0 -135 0 0 310 0 310 135 0 135 0 0 -45z m-3158 -407 c4 -36
5 -135 1 -150 -3 -14 -15 -18 -59 -18 l-54 0 0 83 c0 46 3 87 7 90 12 13 103
8 105 -5z"/>
<path d="M4570 7591 c0 -22 -5 -41 -12 -43 -6 -2 -11 -24 -11 -49 l0 -44 51
-3 52 -3 0 50 c0 28 -4 51 -10 51 -5 0 -10 18 -10 40 0 38 -2 40 -30 40 -28 0
-30 -2 -30 -39z"/>
<path d="M6740 7630 l0 -90 90 0 90 0 0 90 0 90 -90 0 -90 0 0 -90z"/>
<path d="M6740 7370 l0 -90 90 0 90 0 0 90 0 90 -90 0 -90 0 0 -90z"/>
<path d="M8560 7675 c0 -33 -4 -45 -15 -45 -13 0 -15 -21 -15 -130 0 -109 2
-130 15 -130 11 0 15 -12 15 -45 l0 -45 55 0 55 0 0 40 c0 25 6 42 16 48 13 7
15 30 15 132 0 102 -2 125 -15 132 -10 6 -16 23 -16 48 l0 40 -55 0 -55 0 0
-45z"/>
<path d="M9420 7630 l0 -90 74 0 74 0 4 48 c1 26 2 66 0 90 l-3 42 -75 0 -74
0 0 -90z"/>
<path d="M9923 7593 c1 -20 -4 -38 -11 -41 -7 -2 -12 -23 -12 -53 l0 -49 55 0
55 0 0 49 c0 29 -5 51 -12 53 -6 2 -11 21 -10 41 1 36 0 37 -32 37 -33 0 -34
-1 -33 -37z"/>
<path d="M10315 7500 l0 -220 65 0 65 0 0 42 c0 37 3 43 23 46 22 3 22 6 22
133 0 122 -1 129 -20 129 -22 0 -36 37 -27 70 5 18 0 20 -62 20 l-66 0 0 -220z"/>
</g>
</svg>
